<?xml version="1.0" encoding="UTF-8"?>
<svg xmlns="http://www.w3.org/2000/svg" xmlns:xlink="http://www.w3.org/1999/xlink" width="100px" height="100px" viewBox="0 0 100 100" version="1.1">
<defs>
<clipPath id="clip1">
  <path d="M 0 0 L 100 0 L 100 98.183594 L 0 98.183594 Z M 0 0 "/>
</clipPath>
</defs>
<g id="surface1">
<g clip-path="url(#clip1)" clip-rule="nonzero">
<path style=" stroke:none;fill-rule:evenodd;fill:rgb(21.960784%,74.117647%,97.254902%);fill-opacity:1;" d="M 50 0 C 36.667969 0 28.332031 10.910156 25 32.726562 C 30 21.816406 35.832031 17.726562 42.5 20.453125 C 46.304688 22.007812 49.023438 26.527344 52.03125 31.523438 C 56.933594 39.667969 62.605469 49.089844 75 49.089844 C 88.332031 49.089844 96.667969 38.183594 100 16.363281 C 95 27.273438 89.167969 31.363281 82.5 28.636719 C 78.695312 27.082031 75.976562 22.5625 72.96875 17.566406 C 68.066406 9.425781 62.394531 0 50 0 Z M 25 49.089844 C 11.667969 49.089844 3.332031 60 0 81.816406 C 5 70.910156 10.832031 66.816406 17.5 69.546875 C 21.304688 71.101562 24.023438 75.617188 27.03125 80.613281 C 31.933594 88.757812 37.605469 98.183594 50 98.183594 C 63.332031 98.183594 71.667969 87.273438 75 65.453125 C 70 76.363281 64.167969 80.453125 57.5 77.726562 C 53.695312 76.171875 50.976562 71.65625 47.96875 66.65625 C 43.066406 58.515625 37.394531 49.089844 25 49.089844 Z M 25 49.089844 "/>
</g>
</g>
</svg>
